<svg width="10" height="10" viewBox="0 0 10 10" fill="none" xmlns="http://www.w3.org/2000/svg">
<path d="M5.6788 4.99911L8.69944 1.97847C8.78945 1.88846 8.84001 1.76639 8.84001 1.63911C8.84001 1.51182 8.78945 1.38975 8.69944 1.29975C8.60944 1.20974 8.48737 1.15918 8.36008 1.15918C8.2328 1.15918 8.11073 1.20974 8.02072 1.29975L5.00008 4.32039L1.97944 1.29975C1.93488 1.25518 1.88197 1.21983 1.82374 1.19571C1.76552 1.17159 1.70311 1.15918 1.64008 1.15918C1.57706 1.15918 1.51465 1.17159 1.45642 1.19571C1.3982 1.21983 1.34529 1.25518 1.30072 1.29975C1.21072 1.38975 1.16016 1.51182 1.16016 1.63911C1.16016 1.76639 1.21072 1.88846 1.30072 1.97847L4.32136 4.99911L1.30072 8.01975C1.21072 8.10975 1.16016 8.23182 1.16016 8.35911C1.16016 8.48639 1.21072 8.60846 1.30072 8.69847C1.39073 8.78847 1.5128 8.83903 1.64008 8.83903C1.76737 8.83903 1.88944 8.78847 1.97944 8.69847L5.00008 5.67783L8.02072 8.69847C8.0652 8.7432 8.11807 8.77869 8.17631 8.80291C8.23455 8.82713 8.29701 8.8396 8.36008 8.8396C8.42316 8.8396 8.48561 8.82713 8.54385 8.80291C8.60209 8.77869 8.65497 8.7432 8.69944 8.69847C8.74406 8.65393 8.77945 8.60103 8.8036 8.5428C8.82775 8.48457 8.84018 8.42215 8.84018 8.35911C8.84018 8.29607 8.82775 8.23365 8.8036 8.17541C8.77945 8.11718 8.74406 8.06428 8.69944 8.01975L5.6788 4.99911Z" fill="white"/>
</svg>
