<svg width="20" height="20" viewBox="0 0 20 20" fill="none" xmlns="http://www.w3.org/2000/svg">
<path d="M7.2235 18.3366C7.65314 18.3366 8.00144 17.9883 8.00144 17.5587C8.00144 17.1291 7.65314 16.7808 7.2235 16.7808C6.79385 16.7808 6.44556 17.1291 6.44556 17.5587C6.44556 17.9883 6.79385 18.3366 7.2235 18.3366Z" stroke="black" stroke-width="1.3" stroke-linecap="round" stroke-linejoin="round"/>
<path d="M15.7809 18.3366C16.2105 18.3366 16.5588 17.9883 16.5588 17.5587C16.5588 17.1291 16.2105 16.7808 15.7809 16.7808C15.3512 16.7808 15.0029 17.1291 15.0029 17.5587C15.0029 17.9883 15.3512 18.3366 15.7809 18.3366Z" stroke="black" stroke-width="1.3" stroke-linecap="round" stroke-linejoin="round"/>
<path d="M1 2H4.11176L6.19664 12.4166C6.26777 12.7748 6.46262 13.0965 6.74706 13.3255C7.03151 13.5545 7.38743 13.6761 7.75252 13.6691H15.3141C15.6792 13.6761 16.0351 13.5545 16.3195 13.3255C16.604 13.0965 16.7988 12.7748 16.87 12.4166L18.1147 5.8897H4.8897" stroke="black" stroke-width="1.3" stroke-linecap="round" stroke-linejoin="round"/>
</svg>
