<svg width="20" height="20" viewBox="0 0 20 20" fill="none" xmlns="http://www.w3.org/2000/svg">
<path d="M13.6781 2.65283H15.4831C15.9619 2.65283 16.421 2.84301 16.7595 3.18152C17.098 3.52004 17.2882 3.97917 17.2882 4.4579V17.0934C17.2882 17.5721 17.098 18.0312 16.7595 18.3698C16.421 18.7083 15.9619 18.8984 15.4831 18.8984H4.65272C4.17399 18.8984 3.71486 18.7083 3.37635 18.3698C3.03783 18.0312 2.84766 17.5721 2.84766 17.0934V4.4579C2.84766 3.97917 3.03783 3.52004 3.37635 3.18152C3.71486 2.84301 4.17399 2.65283 4.65272 2.65283H6.45779" stroke="black" stroke-width="1.3" stroke-linecap="round" stroke-linejoin="round"/>
<path d="M12.7755 0.847656H7.3603C6.86184 0.847656 6.45776 1.25173 6.45776 1.75019V3.55526C6.45776 4.05371 6.86184 4.45779 7.3603 4.45779H12.7755C13.274 4.45779 13.678 4.05371 13.678 3.55526V1.75019C13.678 1.25173 13.274 0.847656 12.7755 0.847656Z" stroke="black" stroke-width="1.3" stroke-linecap="round" stroke-linejoin="round"/>
</svg>
